# xmcd
#
# Track frame offsets: 
#        150
#        18245
#        35196
#        57187
#        74073
#        100803
#        122973
#        141136
#        158400
#        177550
#        203374
#        224065
#
# Disc length: 3249 seconds
#
# Revision: 2
# Processed by: cddbd v1.5.2PL0 Copyright (c) Steve Scherf et al.
# Submitted via: ExactAudioCopyFreeDBPlugin 1.0
#
DISCID=b30caf0c
DTITLE=Various Artist - Chicago Plays The Stones
DYEAR=2018
DGENRE=Blues
TTITLE0=John Primer - Let It Bleed
TTITLE1=Billy Boy Arnold - Play With Fire
TTITLE2=Buddy Guy (featuring Mick Jagger) - Doo Doo Doo Doo (Heartbrea
TTITLE2=ker)
TTITLE3=Ronnie Baker Brooks - (I Can't Get No) Satisfaction
TTITLE4=Billy Branch - Sympathy For The Devil
TTITLE5=John Primer - Angie
TTITLE6=Leanne Faine - Gimme Shelter
TTITLE7=Jimmy Burns (featuring Keith Richards) - Beast Of Burden
TTITLE8=Mike Avery - Miss You
TTITLE9=Omar Coleman - I Go Wild
TTITLE10=Carlos Johnson - Out Of Control
TTITLE11=Jimmy Burns - Dead Flowers
EXTD=
EXTT0=
EXTT1=
EXTT2=
EXTT3=
EXTT4=
EXTT5=
EXTT6=
EXTT7=
EXTT8=
EXTT9=
EXTT10=
EXTT11=
PLAYORDER=
